<?xml version="1.0" encoding="UTF-8"?>
<svg id="Layer_1" xmlns="http://www.w3.org/2000/svg" version="1.1" viewBox="0 0 24 23.76">
  <!-- Generator: Adobe Illustrator 29.5.0, SVG Export Plug-In . SVG Version: 2.1.0 Build 137)  -->
  <defs>
    <style>
      .st0 {
        fill: #040000;
      }
    </style>
  </defs>
  <path class="st0" d="M16.66,14.82c-.38-.47-.49-1.04-.21-1.47.17-.26.34-.72.34-1.11,0-.68-.79-1.7-1.91-1.91-.68-.13-1.42-.13-2-.21-1.62-.21-2.08-.87-2.08-1.53,0-.77.77-.98,1.08-1.02,1.32-.17,2.93.74,4.1,2.45-.7-2.17-2.17-3.21-3.89-3.7,1.77.15,2.89.96,4.04,2.45-.87-2.72-3.25-3.45-4.59-3.53-1.55-.09-2.76.3-3.72,1.49-.04.06-.13.17-.17.23-.04.06-.09.11-.11.17-.04.06-.09.15-.11.21-.11.3-.19.66-.23.87-.06.3-.23.81-.34,1.02.11.15.23.26.4.3,0,0-.09.15.02.49.09.23.26.38.28.66.02.23-.17.62-.17.62,0,0,.49-.32.57-.64.06-.26-.04-.38-.02-.64.02-.04.04-.26.21-.38.09-.06.21-.09.32-.06.23.06.36.28.32.51-.06.32-.38.89-.62,1.53-.34.89-.17,1.49.53,2.34-.04,1.25-.43,2.68-.38,3,.02.15.13.19.28.21h.79l.13-.47c.6-2.7,2.3-3.36,3.93-3.17,1.06.13,2.3,1.34,2.19,3.11-.02.17-.06.28-.02.38.06.13.15.15.3.17h.83l.15-.19c-.17-.3-.38-1.55-.23-2.17M8.11,8.22c-.15.02-.28-.09-.28-.21-.02-.15.09-.26.23-.28.15-.02.26.09.28.21,0,.15-.09.28-.23.28"/>
  <path class="st0" d="M11.83,22.62C5.68,22.62.68,17.62.68,11.48S5.68.33,11.83.33s11.14,5,11.14,11.14c0,6.15-5,11.14-11.14,11.14M11.83,2.1C6.66,2.1,2.45,6.31,2.45,11.48s4.21,9.38,9.38,9.38,9.38-4.21,9.38-9.38S17,2.1,11.83,2.1"/>
</svg>