<?xml version="1.0" encoding="UTF-8"?>
<svg id="Layer_1" xmlns="http://www.w3.org/2000/svg" version="1.1" viewBox="0 0 36 16.61">
  <!-- Generator: Adobe Illustrator 29.4.0, SVG Export Plug-In . SVG Version: 2.1.0 Build 152)  -->
  <defs>
    <style>
      .st0 {
        fill: #fff;
      }
    </style>
  </defs>
  <g>
    <polygon points="5.45 15.83 7.62 15.83 9.17 14.22 10.52 12.86 9.45 11.81 5.45 15.83"/>
    <polygon points="11.11 10.15 12.17 11.21 19.1 4.29 19.08 15.93 20.65 14.32 20.65 .56 11.11 10.15"/>
  </g>
  <path d="M31.03.56c-1.32,0-2.51.52-3.4,1.36l-1.57-1.35v15.48h2.75l-1.14-1.14.05-10.68c.52-1.32,1.81-2.26,3.31-2.26,1.97,0,3.57,1.6,3.57,3.57s-1.6,3.57-3.57,3.57c-.73,0-1.4-.22-1.96-.59v1.59c.6.26,1.27.41,1.96.41,2.74,0,4.97-2.23,4.97-4.97s-2.23-4.97-4.97-4.97v-.02Z"/>
  <path class="st0" d="M16.28,9.11"/>
  <path d="M2.89,4.56c.43-1.49,1.8-2.59,3.42-2.59,1.97,0,3.57,1.6,3.57,3.57s-1.6,3.57-3.57,3.57c-.94,0-1.79-.37-2.43-.96v1.72c.72.4,1.55.64,2.43.64.65,0,1.27-.13,1.84-.36l3.29,3.26,1.22-1.22-3-3c.99-.91,1.61-2.21,1.61-3.65,0-2.74-2.23-4.97-4.97-4.97-1.37,0-2.61.56-3.51,1.46L1.34.56v13.94l-1.34,1.35h2.91"/>
  <polygon points="13.41 14.43 12.95 14.9 14 15.95 16.43 15.94 14.16 13.67 13.41 14.43"/>
  <polyline points="24.66 16.05 24.66 15.86 24.66 .56 20.88 4.36 20.88 6.53 23.12 4.29 23.12 14.16 23.11 14.89 21.96 16.04"/>
  <polygon points="18.87 6.38 9.46 15.83 11.63 15.83 13.18 14.22 18.87 8.53 18.87 6.38"/>
</svg>