<svg xmlns="http://www.w3.org/2000/svg" fill="none" viewBox="0 0 128 128">
    <g
     transform="matrix(0.01874368,0,0,-0.01874368,-1.2029805,130.10285)"
     stroke="none">
        <path d="m 5368,5595 c -2,-1 -41,-5 -88,-8 -47,-4 -94,-8 -105,-10 -11,-3 -40,-8 -65,-12 -179,-29 -425,-148 -591,-287 l -58,-48 -33,28 c -18,15 -39,34 -48,42 -8,8 -71,62 -139,120 -68,58 -138,117 -155,132 -17,15 -34,28 -37,28 -4,0 -6,-779 -5,-1730 0,-952 1,-1730 0,-1730 -1,0 -1108,1108 -1131,1132 l -23,24 51,55 c 29,29 68,74 88,99 20,25 39,47 44,48 4,2 7,8 7,14 0,5 13,28 29,52 77,111 146,280 182,447 30,136 33,388 5,519 -74,349 -278,659 -560,850 -124,83 -334,176 -446,197 -137,26 -193,31 -305,31 -158,0 -269,-17 -409,-62 -181,-60 -350,-156 -474,-270 l -59,-55 -197,196 -196,196 V 3719 1845 L 475,1670 c -96,-96 -175,-178 -175,-181 0,-3 174,-6 386,-6 h 385 l -3,1521 c -3,1662 -7,1537 58,1668 69,143 170,266 284,349 62,45 124,84 150,95 8,3 34,15 57,25 163,72 417,94 585,48 24,-6 50,-13 59,-14 42,-8 177,-72 242,-114 274,-180 438,-477 438,-795 0,-50 -3,-111 -7,-136 -46,-323 -253,-602 -546,-739 -131,-62 -230,-84 -388,-87 -120,-2 -147,0 -240,25 -58,15 -139,42 -180,61 -71,33 -221,132 -228,151 -14,38 -20,-23 -20,-220 l -1,-228 87,-41 c 209,-97 355,-128 593,-126 135,2 270,25 401,69 l 70,24 635,-632 c 860,-856 916,-913 925,-937 7,-20 12,-20 368,-20 198,1 360,4 360,8 0,4 -67,73 -149,154 l -149,148 4,787 c 3,434 6,1081 8,1438 l 3,650 38,75 c 161,318 482,519 835,523 130,1 172,-4 278,-34 348,-98 622,-403 682,-759 79,-471 -202,-930 -659,-1074 -107,-34 -162,-41 -301,-40 -169,1 -306,38 -451,119 l -59,34 v -214 -214 l 57,-21 c 194,-72 423,-100 624,-76 54,6 66,8 134,21 17,4 73,20 125,37 391,125 712,441 848,833 51,147 63,219 67,410 6,219 -33,406 -123,595 -205,430 -638,728 -1097,756 -44,3 -88,7 -97,8 -9,2 -18,3 -20,1 z"></path>
    </g>
    <style>
        g { fill: #000; }
        @media (prefers-color-scheme: dark) {
            g { fill: #FFF; }
        }
    </style>
</svg>
